<svg width="50" height="51" viewBox="0 0 50 51" fill="none" xmlns="http://www.w3.org/2000/svg">
<g clip-path="url(#clip0_1_445)">
<path fill-rule="evenodd" clip-rule="evenodd" d="M43.75 4.05702H6.25C5.4212 4.05702 4.62634 4.38631 4.04029 4.97243C3.45424 5.55855 3.125 6.35351 3.125 7.18241V44.687C3.125 45.5159 3.45424 46.3109 4.04029 46.897C4.62634 47.4831 5.4212 47.8124 6.25 47.8124H43.75C44.5788 47.8124 45.3737 47.4831 45.9597 46.897C46.5458 46.3109 46.875 45.5159 46.875 44.687V7.18241C46.875 6.35351 46.5458 5.55855 45.9597 4.97243C45.3737 4.38631 44.5788 4.05702 43.75 4.05702ZM6.25 0.931641C4.5924 0.931641 3.00269 1.5902 1.83058 2.76245C0.65848 3.93469 0 5.5246 0 7.18241L0 44.687C0 46.3448 0.65848 47.9347 1.83058 49.107C3.00269 50.2792 4.5924 50.9378 6.25 50.9378H43.75C45.4076 50.9378 46.9973 50.2792 48.1694 49.107C49.3415 47.9347 50 46.3448 50 44.687V7.18241C50 5.5246 49.3415 3.93469 48.1694 2.76245C46.9973 1.5902 45.4076 0.931641 43.75 0.931641L6.25 0.931641Z" fill="#FFA00D"/>
<path fill-rule="evenodd" clip-rule="evenodd" d="M25 13.4336C25.4144 13.4336 25.8118 13.5982 26.1049 13.8913C26.3979 14.1844 26.5625 14.5818 26.5625 14.9963V24.3724H35.9375C36.3519 24.3724 36.7493 24.5371 37.0424 24.8301C37.3354 25.1232 37.5 25.5207 37.5 25.9351C37.5 26.3496 37.3354 26.7471 37.0424 27.0401C36.7493 27.3332 36.3519 27.4978 35.9375 27.4978H26.5625V36.874C26.5625 37.2884 26.3979 37.6859 26.1049 37.979C25.8118 38.272 25.4144 38.4367 25 38.4367C24.5856 38.4367 24.1882 38.272 23.8951 37.979C23.6021 37.6859 23.4375 37.2884 23.4375 36.874V27.4978H14.0625C13.6481 27.4978 13.2507 27.3332 12.9576 27.0401C12.6646 26.7471 12.5 26.3496 12.5 25.9351C12.5 25.5207 12.6646 25.1232 12.9576 24.8301C13.2507 24.5371 13.6481 24.3724 14.0625 24.3724H23.4375V14.9963C23.4375 14.5818 23.6021 14.1844 23.8951 13.8913C24.1882 13.5982 24.5856 13.4336 25 13.4336Z" fill="black"/>
</g>
<rect x="2.5" y="3.43164" width="45" height="45.0061" rx="7.5" stroke="#FFA00D" stroke-width="5"/>
<defs>
<clipPath id="clip0_1_445">
<rect y="0.931641" width="50" height="50.0061" rx="10" fill="white"/>
</clipPath>
</defs>
</svg>
