<svg width="61" height="62" viewBox="0 0 61 62" fill="none" xmlns="http://www.w3.org/2000/svg">
<path d="M36.5924 49.6837C37.4043 49.6837 38.1829 49.3633 38.7569 48.7932C39.331 48.223 39.6535 47.4496 39.6535 46.6433V40.5625C39.6535 39.7561 39.331 38.9828 38.7569 38.4126C38.1829 37.8424 37.4043 37.5221 36.5924 37.5221C35.7806 37.5221 35.002 37.8424 34.428 38.4126C33.8539 38.9828 33.5314 39.7561 33.5314 40.5625V46.6433C33.5314 47.4496 33.8539 48.223 34.428 48.7932C35.002 49.3633 35.7806 49.6837 36.5924 49.6837ZM24.3484 49.6837C25.1602 49.6837 25.9388 49.3633 26.5129 48.7932C27.0869 48.223 27.4094 47.4496 27.4094 46.6433V40.5625C27.4094 39.7561 27.0869 38.9828 26.5129 38.4126C25.9388 37.8424 25.1602 37.5221 24.3484 37.5221C23.5366 37.5221 22.758 37.8424 22.184 38.4126C21.6099 38.9828 21.2874 39.7561 21.2874 40.5625V46.6433C21.2874 47.4496 21.6099 48.223 22.184 48.7932C22.758 49.3633 23.5366 49.6837 24.3484 49.6837ZM51.8975 13.1989H47.6733L42.3778 2.7095C42.2159 2.32353 41.9757 1.97486 41.6721 1.68527C41.3685 1.39569 41.008 1.17141 40.6132 1.02646C40.2184 0.881509 39.7977 0.818999 39.3774 0.842836C38.9572 0.866674 38.5464 0.976346 38.1708 1.165C37.7951 1.35365 37.4627 1.61723 37.1942 1.93927C36.9258 2.2613 36.7271 2.63487 36.6106 3.03662C36.4941 3.43838 36.4622 3.85969 36.517 4.27423C36.5718 4.68876 36.7121 5.08761 36.9292 5.44586L40.8166 13.1989H20.1242L24.0117 5.44586C24.3088 4.73716 24.325 3.94306 24.0571 3.22298C23.7891 2.5029 23.2568 1.91017 22.5671 1.56377C21.8774 1.21737 21.0812 1.14296 20.3385 1.35548C19.5959 1.568 18.9616 2.05171 18.5631 2.7095L13.2676 13.1989H9.04339C6.87983 13.2316 4.79739 14.0221 3.16334 15.4309C1.52929 16.8398 0.44861 18.7766 0.111889 20.8996C-0.224832 23.0227 0.204042 25.1956 1.32287 27.0353C2.4417 28.8749 4.17861 30.263 6.22726 30.9548L8.4924 53.6362C8.72082 55.8939 9.78826 57.986 11.4863 59.5039C13.1843 61.0219 15.391 61.8566 17.6754 61.8453H43.3267C45.6111 61.8566 47.8178 61.0219 49.5158 59.5039C51.2138 57.986 52.2813 55.8939 52.5097 53.6362L54.7748 30.9548C56.8279 30.261 58.5676 28.8678 59.6856 27.022C60.8037 25.1762 61.2279 22.997 60.8833 20.8702C60.5387 18.7435 59.4473 16.8066 57.8027 15.4025C56.158 13.9984 54.0661 13.2178 51.8975 13.1989ZM46.3571 53.0281C46.2809 53.7807 45.9251 54.478 45.3591 54.984C44.7931 55.49 44.0575 55.7683 43.2961 55.7645H17.6448C16.8833 55.7683 16.1478 55.49 15.5818 54.984C15.0158 54.478 14.6599 53.7807 14.5838 53.0281L12.4105 31.4413H48.5304L46.3571 53.0281ZM51.8975 25.3605H9.04339C8.23156 25.3605 7.45298 25.0401 6.87893 24.47C6.30488 23.8998 5.98238 23.1264 5.98238 22.3201C5.98238 21.5137 6.30488 20.7404 6.87893 20.1702C7.45298 19.6 8.23156 19.2797 9.04339 19.2797H51.8975C52.7093 19.2797 53.4879 19.6 54.0619 20.1702C54.636 20.7404 54.9585 21.5137 54.9585 22.3201C54.9585 23.1264 54.636 23.8998 54.0619 24.47C53.4879 25.0401 52.7093 25.3605 51.8975 25.3605Z" fill="#76481C"/>
</svg>
